# xmcd CD database file
#
# Track frame offsets:
#	150
#	27756
#	60517
#	104851
#	118264
#	128256
#	130839
#	234926
#	251588
#
# Disc length: 3657 seconds
#
# Revision: 0
# Processed by: cddbd v1.5.1PL0 Copyright (c) Steve Scherf et al.
# Submitted via: CDex 1.51
#
DISCID=730e4709
DTITLE=Willie Oteri - Spiral Out
DYEAR=2003
DGENRE=Jazz
TTITLE0=Ephraim Walks In
TTITLE1=Dark Matter
TTITLE2=Sundial/spiral Out
TTITLE3=State Of Things
TTITLE4=Lamont
TTITLE5=Not Salad!!!
TTITLE6=First Light
TTITLE7=The For...
TTITLE8=Mir
EXTD=YEAR: 2003
EXTT0=
EXTT1=
EXTT2=
EXTT3=
EXTT4=
EXTT5=
EXTT6=
EXTT7=
EXTT8=
PLAYORDER=
